<?xml version="1.0" encoding="UTF-8"?>
<svg id="Layer_19" data-name="Layer 19" xmlns="http://www.w3.org/2000/svg" viewBox="0 0 250 150">
  <defs>
    <style>
      .cls-1 {
        fill: #ef383e;
      }

      .cls-2 {
        fill: #3555a6;
      }

      .cls-3 {
        fill: #de903e;
      }

      .cls-4 {
        fill: #5b5c6d;
      }
    </style>
  </defs>
  <path class="cls-4" d="m143.84,87.44v-9.69h28.29l-8.08,8.08h-12.13v24.25h-8.08v-22.64Zm12.13,2.43h8.08l12.13-12.13h4.04v8.08l-12.13,12.13h-12.13v-8.08Z"/>
  <path class="cls-4" d="m166.21,107.24v-1.2l28.29-28.29h8.08v32.33h-8.08v-4.04h-12.13l8.08-8.08h4.04v-8.08l-20.21,20.21h-8.08v-2.84Z"/>
  <path class="cls-4" d="m205.8,87.44v-9.69h8.08v24.25l-8.08,8.08v-22.64Zm12.13,14.56h20.21l4.04,4.04v4.04h-32.33l8.08-8.08Z"/>
  <path class="cls-2" d="m7.82,67.68v-16.17l12.13-12.13h24.25v4.04l-4.04,4.04h-16.17l-8.08,8.08v8.08h20.21l8.08-8.08v12.13l-4.04,4.04H11.86l-4.04-4.04Zm16.17-12.13l4.04-4.04h16.17l-8.08,8.08h-12.13v-4.04Z"/>
  <path class="cls-2" d="m47.42,67.68v-28.29h8.08v24.25h16.17l-8.08,8.08h-12.13l-4.04-4.04Zm28.29-4.04v-24.25h8.08v28.29l-4.04,4.04h-12.13l8.08-8.08Z"/>
  <path class="cls-2" d="m87.01,43.43v-4.04h8.08l20.21,20.21v-20.21h8.08v32.33h-8.08l-28.29-28.29Zm0,11.3v-7.26l8.08,8.08v16.17h-8.08v-16.99Z"/>
  <path class="cls-1" d="m126.61,49.09v-9.69h28.29l-8.08,8.08h-12.13v24.25h-8.08v-22.64Zm12.13,2.43h8.08l12.13-12.13h4.04v8.08l-12.13,12.13h-12.13v-8.08Z"/>
  <path class="cls-1" d="m166.21,49.09v-9.69h8.08v24.25l-8.08,8.08v-22.64Zm12.13,14.56h20.21l4.04,4.04v4.04h-32.33l8.08-8.08Z"/>
  <path class="cls-1" d="m205.8,49.09v-9.69h8.08l28.29,28.29v4.04h-8.08l-20.21-20.21v8.08h4.04l8.08,8.08h-12.13v4.04h-8.08v-22.64Z"/>
  <g>
    <rect class="cls-3" x="112.09" y="87.64" width="2.99" height=".99"/>
    <rect class="cls-3" x="112.09" y="90.2" width="2.99" height=".99"/>
    <path class="cls-3" d="m66.91,86.99c-.25,0-.46.09-.64.27s-.27.41-.27.69.1.51.29.69c.19.17.41.26.65.26.63,0,.94-.32.94-.96,0-.3-.1-.53-.29-.69s-.42-.25-.66-.25Z"/>
    <rect class="cls-3" x="116.18" y="98.42" width="4.07" height="1"/>
    <rect class="cls-3" x="102.54" y="90.8" width="2.52" height="4.36"/>
    <rect class="cls-3" x="97.48" y="90.8" width="2.44" height="4.36"/>
    <rect class="cls-3" x="116.18" y="95.6" width="4.07" height="1.01"/>
    <path class="cls-3" d="m7.82,78.27v32.33h126.87v-32.33H7.82Zm65.94,8.01h11.35v2.46h-11.35v-2.46Zm-38.95.44c1.52.91,3.13,2.11,4.83,3.59l-1.71,2.02c-1.55-1.41-3.08-2.62-4.61-3.65l1.5-1.96Zm-8.94-.53c.69,1.02,1.31,2.03,1.86,3.05l-1.57.81c-.39-.87-.93-1.92-1.61-3.14l1.33-.72Zm2.07,8.92c-.11,1.53-.24,2.81-.37,3.84s-.29,1.71-.47,2.04c-.18.33-.41.6-.68.82-.27.22-.6.38-.99.5s-1.03.17-1.92.17c-.43,0-.9-.02-1.42-.06l-.72-2.59c1.69.05,2.63.03,2.82-.05.2-.08.35-.21.45-.39.1-.17.24-.9.4-2.18.16-1.28.29-2.71.38-4.31h-3.78c-.1,1.99-.79,3.92-2.07,5.79-1.28,1.87-2.9,3.38-4.85,4.53l-1.87-2.2c1.69-.9,3.1-2.08,4.22-3.53,1.12-1.46,1.73-2.99,1.84-4.59h-5v-2.48h5.11v-4.68h2.71v4.68h6.46c-.04,1.59-.11,3.15-.23,4.68Zm.3-6.02c-.51-1-1.11-2-1.78-3.01l1.35-.76c.55.71,1.2,1.68,1.94,2.91l-1.52.86Zm14.96,8.85c-2,1.65-5.06,2.86-9.19,3.65l-1.13-2.6c3.41-.46,6.1-1.37,8.09-2.72,1.98-1.35,3.69-3.5,5.13-6.44l2.36,1.25c-1.5,2.93-3.26,5.22-5.26,6.87Zm25.38-8.37c-.44.46-.98.69-1.64.69-.51,0-.95-.14-1.33-.42-.54,3.79-1.67,6.65-3.37,8.59-1.71,1.93-4.38,3.45-8.03,4.55l-1.22-2.46c3.21-.91,5.5-2.07,6.89-3.49,1.39-1.41,2.31-3.39,2.77-5.92h-10.87v-2.51h12.9c-.04-.19-.06-.38-.06-.56,0-.69.23-1.27.68-1.72.45-.45,1.01-.68,1.66-.68s1.18.24,1.61.72.65,1.02.65,1.63-.22,1.11-.65,1.57Zm15.26,9.04c-1.49,1.86-3.83,3.35-7.02,4.47l-1.5-2.37c2.55-.82,4.45-1.81,5.69-2.97,1.24-1.16,2.05-2.6,2.42-4.3h-11.25v-2.46h14.55c-.43,3.23-1.39,5.78-2.88,7.64Zm9.91,4.98h-2.44v-8.34c-.4.69-.83,1.36-1.27,2.03-.15-.91-.38-2.13-.68-3.68,1.5-2.61,2.61-5.44,3.32-8.47,1.67.44,2.51.68,2.54.7-.41,1.51-.9,2.97-1.46,4.39v13.37Zm13.62-4.96h-2.31v-1.12h-2.52v6.19h-2.61v-6.19h-2.44v1.15h-2.31v-10.21h4.76v-3.24h2.61v3.24h4.83v10.17Zm4.72,4.96h-2.48v-17.83h7.9v7.14h-5.42v10.69Zm4.09-1.25h-2.39v-8.58h8.85v7.5h-6.46v1.08Zm10.65-1.63c0,1.93-.87,2.92-2.61,2.96-.77.05-1.84.08-3.2.08-.18-.96-.33-1.71-.47-2.24.92.05,1.82.09,2.69.11.76.01,1.14-.37,1.14-1.14v-7.58h-5.46v-7.14h7.92v14.95Z"/>
    <rect class="cls-3" x="121.34" y="90.2" width="3.03" height=".99"/>
    <rect class="cls-3" x="121.34" y="87.64" width="3.03" height=".99"/>
  </g>
</svg>