<?xml version="1.0" encoding="UTF-8"?>
<svg id="Layer_18" data-name="Layer 18" xmlns="http://www.w3.org/2000/svg" viewBox="0 0 250 150">
  <defs>
    <style>
      .cls-1 {
        fill: #ef383e;
      }

      .cls-2 {
        fill: #3555a6;
      }

      .cls-3 {
        fill: #de903e;
      }

      .cls-4 {
        fill: #5b5c6d;
      }
    </style>
  </defs>
  <path class="cls-4" d="m61.08,104.86v-9.69h28.29l-8.08,8.08h-12.13v24.25h-8.08v-22.64Zm12.13,2.43h8.08l12.13-12.13h4.04v8.08l-12.13,12.13h-12.13v-8.08Z"/>
  <path class="cls-4" d="m83.44,124.66v-1.2l28.29-28.29h8.08v32.33h-8.08v-4.04h-12.13l8.08-8.08h4.04v-8.08l-20.21,20.21h-8.08v-2.84Z"/>
  <path class="cls-4" d="m123.04,104.86v-9.69h8.08v24.25l-8.08,8.08v-22.64Zm12.13,14.56h20.21l4.04,4.04v4.04h-32.33l8.08-8.08Z"/>
  <path class="cls-2" d="m61.29,50.79v-16.17l10.29-12.13h20.59v4.04l-3.43,4.04h-13.73l-6.86,8.08v8.08h17.16l6.86-8.08v12.13l-3.43,4.04h-24.02l-3.43-4.04Zm13.73-12.13l3.43-4.04h13.73l-6.86,8.08h-10.29v-4.04Z"/>
  <path class="cls-2" d="m94.91,50.79v-28.29h6.86v24.25h13.73l-6.86,8.08h-10.29l-3.43-4.04Zm24.02-4.04v-24.25h6.86v28.29l-3.43,4.04h-10.29l6.86-8.08Z"/>
  <path class="cls-2" d="m128.53,26.54v-4.04h6.86l17.16,20.21v-20.21h6.86v32.33h-6.86l-24.02-28.29Zm0,11.3v-7.26l6.86,8.08v16.17h-6.86v-16.99Z"/>
  <path class="cls-1" d="m61.29,68.53v-9.69h24.02l-6.86,8.08h-10.3v24.25h-6.86v-22.64Zm10.3,2.43h6.86l10.29-12.13h3.43v8.08l-10.29,12.13h-10.29v-8.08Z"/>
  <path class="cls-1" d="m94.91,68.53v-9.69h6.86v24.25l-6.86,8.08v-22.64Zm10.29,14.56h17.16l3.43,4.04v4.04h-27.45l6.86-8.08Z"/>
  <path class="cls-1" d="m128.53,68.53v-9.69h6.86l24.02,28.29v4.04h-6.86l-17.16-20.21v8.08h3.43l6.86,8.08h-10.29v4.04h-6.86v-22.64Z"/>
  <g>
    <rect class="cls-3" x="174.07" y="117.77" width="2.94" height=".72"/>
    <rect class="cls-3" x="171.11" y="113.87" width="2.16" height=".71"/>
    <rect class="cls-3" x="174.07" y="119.8" width="2.94" height=".72"/>
    <path class="cls-3" d="m180.16,62.53c.45,0,.68-.23.68-.7,0-.21-.07-.38-.21-.5s-.3-.18-.48-.18-.33.06-.46.19-.2.29-.2.5.07.37.21.5c.14.13.3.19.47.19Z"/>
    <rect class="cls-3" x="171.11" y="112.02" width="2.16" height=".71"/>
    <rect class="cls-3" x="177.79" y="112.02" width="2.19" height=".71"/>
    <rect class="cls-3" x="177.79" y="113.87" width="2.19" height=".71"/>
    <rect class="cls-3" x="174.9" y="97.51" width="1.76" height="3.14"/>
    <path class="cls-3" d="m162.15,22.47v105.06h26.78V22.47h-26.78Zm18.09,3.89c.4.51.86,1.21,1.4,2.1l-1.09.62c-.37-.72-.8-1.44-1.29-2.17l.98-.55Zm-4.49,24.7c1.43-.98,2.66-2.52,3.7-4.65l1.7.9c-1.08,2.11-2.35,3.77-3.79,4.96s-3.66,2.07-6.63,2.63l-.81-1.88c2.46-.33,4.41-.99,5.83-1.96Zm-5.53-5.47l1.08-1.42c1.1.66,2.26,1.52,3.49,2.59l-1.24,1.46c-1.12-1.02-2.23-1.89-3.33-2.63Zm8.61-18.6c.5.73.95,1.47,1.34,2.2l-1.13.59c-.28-.63-.67-1.39-1.16-2.27l.96-.52Zm-8.64,4.85v-1.79h3.68v-3.38h1.96v3.38h4.66c-.03,1.15-.08,2.28-.16,3.38s-.17,2.03-.27,2.77c-.1.74-.21,1.23-.34,1.47-.13.24-.29.43-.49.59s-.44.28-.72.36-.75.12-1.39.12c-.31,0-.65-.01-1.03-.04l-.52-1.87c1.22.04,1.9.02,2.04-.04s.25-.15.32-.28c.08-.13.17-.65.29-1.57s.21-1.96.27-3.11h-2.73c-.07,1.44-.57,2.83-1.5,4.18s-2.09,2.44-3.5,3.27l-1.35-1.59c1.22-.65,2.24-1.5,3.04-2.55s1.25-2.16,1.33-3.32h-3.61Zm-.95,30.49h9.31c-.03-.14-.04-.27-.04-.4,0-.5.16-.92.49-1.24s.73-.49,1.2-.49.85.17,1.17.52c.31.35.47.74.47,1.18s-.16.8-.47,1.13-.71.5-1.18.5c-.36,0-.68-.1-.96-.3-.39,2.73-1.2,4.8-2.43,6.2s-3.16,2.49-5.8,3.28l-.88-1.78c2.32-.66,3.97-1.49,4.97-2.52,1-1.02,1.67-2.44,2-4.27h-7.84v-1.81Zm1.05,20.29v-1.78h10.5c-.31,2.33-1,4.17-2.08,5.51-1.08,1.34-2.77,2.42-5.07,3.22l-1.08-1.71c1.84-.59,3.21-1.31,4.11-2.15.89-.84,1.48-1.87,1.75-3.1h-8.12Zm1.15-3.38v-1.78h8.19v1.78h-8.19Zm0,14.2c1.2.32,1.81.49,1.83.51-.3,1.09-.65,2.14-1.05,3.17v9.65h-1.76v-6.02c-.29.5-.6.98-.92,1.46-.11-.66-.27-1.54-.49-2.65,1.08-1.89,1.88-3.92,2.39-6.11Zm-.31,30.12h-1.79v-12.87h5.7v5.15h-3.91v7.71Zm2.95-.9h-1.72v-6.19h6.38v5.41h-4.66v.78Zm7.68-1.18c0,1.39-.63,2.11-1.89,2.13-.56.04-1.33.05-2.31.05-.13-.69-.24-1.23-.34-1.61.67.04,1.31.06,1.94.08.55,0,.82-.26.82-.82v-5.47h-3.94v-5.15h5.71v10.79Zm.29-18.3h-1.67v-.81h-1.82v4.47h-1.89v-4.47h-1.76v.83h-1.67v-7.37h3.43v-2.34h1.89v2.34h3.49v7.34Z"/>
    <rect class="cls-3" x="178.55" y="97.51" width="1.82" height="3.14"/>
  </g>
</svg>